<?xml version="1.0" encoding="utf-8"?>
<!-- Generator: Adobe Illustrator 16.0.0, SVG Export Plug-In . SVG Version: 6.00 Build 0)  -->
<!DOCTYPE svg PUBLIC "-//W3C//DTD SVG 1.1//EN" "http://www.w3.org/Graphics/SVG/1.1/DTD/svg11.dtd">
<svg version="1.1" id="Layer_1" xmlns="http://www.w3.org/2000/svg" xmlns:xlink="http://www.w3.org/1999/xlink" x="0px" y="0px"
	 width="841.89px" height="595.28px" viewBox="0 0 841.89 595.28" enable-background="new 0 0 841.89 595.28" xml:space="preserve">
<rect width="841.89" height="595.28"/>
<g>
	<circle fill="#01304A" cx="571.134" cy="291.783" r="57.771"/>
	<circle fill="#01304A" cx="304.596" cy="356.055" r="57.771"/>
	<circle fill="#01304A" cx="328.756" cy="235.605" r="34.662"/>
	<circle fill="#01304A" cx="316.545" cy="504.82" r="34.662"/>
	<circle fill="#01304A" cx="380.808" cy="443.059" r="47.448"/>
	<circle fill="#01304A" cx="412.756" cy="240.963" r="57.771"/>
	<circle fill="#01304A" cx="566.162" cy="441.947" r="57.771"/>
	<circle fill="#004D78" cx="554.845" cy="316.537" r="14.206"/>
	<circle fill="#004D78" cx="514.258" cy="370.262" r="14.206"/>
	<circle fill="#004D78" cx="363.922" cy="297.865" r="14.206"/>
	<circle fill="#004D78" cx="598.74" cy="362.289" r="14.206"/>
	<circle fill="#004D78" cx="297.257" cy="234.012" r="14.206"/>
	<circle fill="#004D78" cx="402.258" cy="506.984" r="14.206"/>
	<circle fill="#004D78" cx="367.281" cy="470.498" r="14.206"/>
	<circle fill="#004D78" cx="286.234" cy="482.904" r="14.206"/>
	<circle fill="#004D78" cx="524.476" cy="446.484" r="14.206"/>
	<circle fill="#004D78" cx="292.906" cy="391.455" r="14.206"/>
	<circle fill="#62B4CE" stroke="#F3FAFD" stroke-width="4.2618" stroke-miterlimit="10" cx="425.115" cy="360.191" r="82.868"/>
	<circle fill="#62B4CE" stroke="#F3FAFD" stroke-width="2.8412" stroke-miterlimit="10" cx="477.037" cy="493.828" r="39.776"/>
	<circle fill="#62B4CE" stroke="#F3FAFD" stroke-width="2.8412" stroke-miterlimit="10" cx="283.916" cy="433.65" r="23.203"/>
	<circle fill="#62B4CE" stroke="#F3FAFD" stroke-width="2.8412" stroke-miterlimit="10" cx="375.379" cy="207.817" r="33.146"/>
	<g>
		<g>
			
				<line fill="none" stroke="#FFFFFF" stroke-width="3.4094" stroke-miterlimit="10" x1="372.154" y1="330.84" x2="372.154" y2="393.736"/>
			
				<line fill="none" stroke="#FFFFFF" stroke-width="3.4094" stroke-miterlimit="10" x1="371.392" y1="395.527" x2="463.471" y2="395.527"/>
			<rect x="379.401" y="370.262" fill="#FFFFFF" width="12.359" height="23.475"/>
			<rect x="396.079" y="352.361" fill="#FFFFFF" width="12.358" height="41.375"/>
			<rect x="412.755" y="340.66" fill="#FFFFFF" width="12.36" height="53.076"/>
			<rect x="429.436" y="353.959" fill="#FFFFFF" width="12.354" height="39.777"/>
			<rect x="446.114" y="371.061" fill="#FFFFFF" width="12.355" height="22.676"/>
		</g>
		<g>
			<circle fill="none" stroke="#FFFFFF" stroke-width="1.7047" stroke-miterlimit="10" cx="449.124" cy="321.871" r="24.008"/>
			<path fill="none" stroke="#FFFFFF" stroke-width="1.7047" stroke-miterlimit="10" d="M430.645,306.545
				c0,0,19.159,19.91,35.638-0.547"/>
			<path fill="none" stroke="#FFFFFF" stroke-width="1.7047" stroke-miterlimit="10" d="M425.115,316.537
				c0,0,23.349,23.305,48.017,0"/>
			<path fill="none" stroke="#FFFFFF" stroke-width="1.7047" stroke-miterlimit="10" d="M425.959,328.197
				c0,0,24.728,21.447,47.173-1.563"/>
			<path fill="none" stroke="#FFFFFF" stroke-width="1.7047" stroke-miterlimit="10" d="M441.073,299.248
				c0,0-16.577,22.621-0.723,44.252"/>
			<path fill="none" stroke="#FFFFFF" stroke-width="1.7047" stroke-miterlimit="10" d="M457.174,299.248
				c0,0,12.476,26.529-0.628,45.461"/>
			
				<line fill="none" stroke="#FFFFFF" stroke-width="1.7047" stroke-miterlimit="10" x1="449.046" y1="297.011" x2="449.046" y2="346.875"/>
		</g>
	</g>
	<g>
		<g>
			
				<rect x="357.02" y="189.835" fill="none" stroke="#FFFFFF" stroke-width="1.3922" stroke-miterlimit="10" width="35.964" height="35.964"/>
			
				<line fill="none" stroke="#FFFFFF" stroke-width="0.6961" stroke-miterlimit="10" x1="357.02" y1="207.816" x2="393.738" y2="207.816"/>
			
				<line fill="none" stroke="#FFFFFF" stroke-width="0.6961" stroke-miterlimit="10" x1="375.38" y1="189.835" x2="375.38" y2="225.799"/>
		</g>
		<circle fill="#FDFDFE" stroke="#092134" stroke-width="0.4873" stroke-miterlimit="10" cx="365.25" cy="198.554" r="2.031"/>
		<circle fill="#FDFDFE" stroke="#092134" stroke-width="0.4873" stroke-miterlimit="10" cx="364.41" cy="204.002" r="2.031"/>
		<circle fill="#FDFDFE" stroke="#092134" stroke-width="0.4873" stroke-miterlimit="10" cx="370.013" cy="195.19" r="2.03"/>
		<circle fill="#FDFDFE" stroke="#092134" stroke-width="0.4873" stroke-miterlimit="10" cx="361.892" cy="193.16" r="2.03"/>
		<g>
			
				<line fill="none" stroke="#FFFFFF" stroke-width="0.348" stroke-miterlimit="10" x1="375.539" y1="204.002" x2="376.613" y2="204.002"/>
			
				<line fill="none" stroke="#FFFFFF" stroke-width="0.348" stroke-miterlimit="10" x1="375.539" y1="201.844" x2="376.613" y2="201.844"/>
			
				<line fill="none" stroke="#FFFFFF" stroke-width="0.348" stroke-miterlimit="10" x1="375.539" y1="199.687" x2="376.613" y2="199.687"/>
			
				<line fill="none" stroke="#FFFFFF" stroke-width="0.348" stroke-miterlimit="10" x1="375.539" y1="197.529" x2="376.613" y2="197.529"/>
			
				<line fill="none" stroke="#FFFFFF" stroke-width="0.348" stroke-miterlimit="10" x1="375.539" y1="195.371" x2="376.613" y2="195.371"/>
			
				<line fill="none" stroke="#FFFFFF" stroke-width="0.348" stroke-miterlimit="10" x1="375.539" y1="193.213" x2="376.613" y2="193.213"/>
		</g>
		<g>
			
				<line fill="none" stroke="#FFFFFF" stroke-width="0.348" stroke-miterlimit="10" x1="376.613" y1="212.704" x2="375.539" y2="212.704"/>
			
				<line fill="none" stroke="#FFFFFF" stroke-width="0.348" stroke-miterlimit="10" x1="376.613" y1="214.862" x2="375.539" y2="214.862"/>
			
				<line fill="none" stroke="#FFFFFF" stroke-width="0.348" stroke-miterlimit="10" x1="376.613" y1="217.019" x2="375.539" y2="217.019"/>
			
				<line fill="none" stroke="#FFFFFF" stroke-width="0.348" stroke-miterlimit="10" x1="376.613" y1="219.177" x2="375.539" y2="219.177"/>
			
				<line fill="none" stroke="#FFFFFF" stroke-width="0.348" stroke-miterlimit="10" x1="376.613" y1="221.334" x2="375.539" y2="221.334"/>
			
				<line fill="none" stroke="#FFFFFF" stroke-width="0.348" stroke-miterlimit="10" x1="376.613" y1="223.493" x2="375.539" y2="223.493"/>
		</g>
		<g>
			
				<line fill="none" stroke="#FFFFFF" stroke-width="0.348" stroke-miterlimit="10" x1="360.935" y1="207.816" x2="360.935" y2="208.889"/>
			
				<line fill="none" stroke="#FFFFFF" stroke-width="0.348" stroke-miterlimit="10" x1="363.093" y1="207.816" x2="363.093" y2="208.889"/>
			
				<line fill="none" stroke="#FFFFFF" stroke-width="0.348" stroke-miterlimit="10" x1="365.251" y1="207.816" x2="365.251" y2="208.889"/>
			
				<line fill="none" stroke="#FFFFFF" stroke-width="0.348" stroke-miterlimit="10" x1="367.409" y1="207.816" x2="367.409" y2="208.889"/>
			
				<line fill="none" stroke="#FFFFFF" stroke-width="0.348" stroke-miterlimit="10" x1="369.566" y1="207.816" x2="369.566" y2="208.889"/>
			
				<line fill="none" stroke="#FFFFFF" stroke-width="0.348" stroke-miterlimit="10" x1="371.724" y1="207.816" x2="371.724" y2="208.889"/>
		</g>
		<g>
			
				<line fill="none" stroke="#FFFFFF" stroke-width="0.348" stroke-miterlimit="10" x1="378.652" y1="207.816" x2="378.652" y2="208.889"/>
			
				<line fill="none" stroke="#FFFFFF" stroke-width="0.348" stroke-miterlimit="10" x1="380.808" y1="207.816" x2="380.808" y2="208.889"/>
			
				<line fill="none" stroke="#FFFFFF" stroke-width="0.348" stroke-miterlimit="10" x1="382.966" y1="207.816" x2="382.966" y2="208.889"/>
			
				<line fill="none" stroke="#FFFFFF" stroke-width="0.348" stroke-miterlimit="10" x1="385.125" y1="207.816" x2="385.125" y2="208.889"/>
			
				<line fill="none" stroke="#FFFFFF" stroke-width="0.348" stroke-miterlimit="10" x1="387.282" y1="207.816" x2="387.282" y2="208.889"/>
			
				<line fill="none" stroke="#FFFFFF" stroke-width="0.348" stroke-miterlimit="10" x1="389.439" y1="207.816" x2="389.439" y2="208.889"/>
		</g>
		
			<rect x="379.296" y="215.677" fill="#FDFDFE" stroke="#092134" stroke-width="0.4873" stroke-miterlimit="10" width="2.347" height="2.349"/>
		
			<rect x="383.732" y="219.505" fill="#FDFDFE" stroke="#092134" stroke-width="0.4873" stroke-miterlimit="10" width="2.35" height="2.349"/>
		
			<rect x="384.906" y="215.844" fill="#FDFDFE" stroke="#092134" stroke-width="0.4873" stroke-miterlimit="10" width="2.35" height="2.35"/>
		
			<rect x="379.296" y="210.797" fill="#FDFDFE" stroke="#092134" stroke-width="0.4873" stroke-miterlimit="10" width="2.347" height="2.35"/>
	</g>
	<g>
		<circle fill="#62B4CE" stroke="#F3FAFD" stroke-width="2.8412" stroke-miterlimit="10" cx="515.068" cy="247.509" r="39.776"/>
		<g>
			<path fill="none" stroke="#FDFDFE" stroke-width="1.1365" stroke-miterlimit="10" d="M548.026,251.906
				c0,7.532-6.107,13.639-13.637,13.639h-38.641c-7.531,0-13.639-6.107-13.639-13.639v-8.797c0-7.531,6.107-13.637,13.639-13.637
				h38.641c7.529,0,13.637,6.106,13.637,13.637V251.906z"/>
			<g>
				<g>
					
						<line fill="none" stroke="#FDFDFE" stroke-width="0.8631" stroke-miterlimit="10" x1="508.226" y1="259.41" x2="540.729" y2="259.41"/>
					
						<line fill="none" stroke="#FDFDFE" stroke-width="0.6819" stroke-miterlimit="10" x1="525.301" y1="243.348" x2="525.301" y2="259.358"/>
					<circle fill="#FDFDFE" cx="513.003" cy="240.682" r="1.254"/>
					<circle fill="#FDFDFE" cx="518.003" cy="243.348" r="1.255"/>
					<circle fill="#FDFDFE" cx="529.922" cy="245.858" r="1.254"/>
					<circle fill="#FDFDFE" cx="523.567" cy="257.393" r="1.255"/>
					<circle fill="#FDFDFE" cx="522.313" cy="254.866" r="1.255"/>
					<circle fill="#FDFDFE" cx="521.058" cy="256.214" r="1.255"/>
					<circle fill="#FDFDFE" cx="521.058" cy="253.61" r="1.255"/>
					<circle fill="#FDFDFE" cx="522.313" cy="251.483" r="1.255"/>
					<circle fill="#FDFDFE" cx="519.803" cy="247.846" r="1.255"/>
					<circle fill="#FDFDFE" cx="533.483" cy="240.682" r="1.254"/>
					<circle fill="#FDFDFE" cx="535.444" cy="248.972" r="1.255"/>
					<circle fill="#FDFDFE" cx="514.258" cy="246.592" r="1.255"/>
					<circle fill="#FDFDFE" cx="515.513" cy="250.228" r="1.255"/>
					<circle fill="#FDFDFE" cx="519.259" cy="254.866" r="1.255"/>
					<circle fill="#FDFDFE" cx="527.414" cy="257.393" r="1.254"/>
					<circle fill="#FDFDFE" cx="528.667" cy="254.866" r="1.255"/>
					<circle fill="#FDFDFE" cx="529.922" cy="256.214" r="1.254"/>
					<circle fill="#FDFDFE" cx="529.922" cy="253.61" r="1.254"/>
					<circle fill="#FDFDFE" cx="532.432" cy="254.416" r="1.256"/>
					<circle fill="#FDFDFE" cx="528.667" cy="251.483" r="1.255"/>
					<circle fill="#FDFDFE" cx="531.177" cy="251.483" r="1.255"/>
					<g>
						<g>
							
								<line fill="none" stroke="#FDFDFE" stroke-width="0.3409" stroke-miterlimit="10" x1="522.063" y1="243.613" x2="522.063" y2="244.125"/>
							
								<line fill="none" stroke="#FDFDFE" stroke-width="0.3409" stroke-miterlimit="10" stroke-dasharray="0.9811,0.9811" x1="522.063" y1="245.106" x2="522.063" y2="258.35"/>
							
								<line fill="none" stroke="#FDFDFE" stroke-width="0.3409" stroke-miterlimit="10" x1="522.063" y1="258.841" x2="522.063" y2="259.352"/>
						</g>
					</g>
					<g>
						<g>
							
								<line fill="none" stroke="#FDFDFE" stroke-width="0.3409" stroke-miterlimit="10" x1="528.668" y1="243.613" x2="528.668" y2="244.125"/>
							
								<line fill="none" stroke="#FDFDFE" stroke-width="0.3409" stroke-miterlimit="10" stroke-dasharray="0.9811,0.9811" x1="528.668" y1="245.106" x2="528.668" y2="258.35"/>
							
								<line fill="none" stroke="#FDFDFE" stroke-width="0.3409" stroke-miterlimit="10" x1="528.668" y1="258.841" x2="528.668" y2="259.352"/>
						</g>
					</g>
					
						<line fill="none" stroke="#FDFDFE" stroke-width="0.7898" stroke-miterlimit="10" x1="508.226" y1="239.428" x2="508.226" y2="259.41"/>
				</g>
				
					<rect x="489.409" y="235.605" fill="none" stroke="#FDFDFE" stroke-width="0.9918" stroke-miterlimit="10" width="13.889" height="23.805"/>
				<rect x="490.947" y="238.92" fill="#D0D2D1" width="10.81" height="1.762"/>
				<rect x="490.947" y="242.479" fill="#D0D2D1" width="10.81" height="1.762"/>
				<rect x="490.947" y="246.041" fill="#D0D2D1" width="10.81" height="1.762"/>
				<rect x="490.947" y="249.602" fill="#D0D2D1" width="10.81" height="1.762"/>
				<rect x="490.947" y="253.162" fill="#D0D2D1" width="10.81" height="1.762"/>
			</g>
		</g>
	</g>
	<g>
		<rect x="454.487" y="482.904" fill="#F3FAFD" width="10.654" height="10.654"/>
		
			<rect x="469.51" y="482.904" fill="none" stroke="#F3FAFD" stroke-width="0.8524" stroke-miterlimit="10" width="10.655" height="10.654"/>
		<rect x="483.681" y="482.904" fill="#F3FAFD" width="10.654" height="10.654"/>
		<rect x="483.681" y="496.33" fill="#F3FAFD" width="10.654" height="10.654"/>
		
			<rect x="469.083" y="496.33" fill="none" stroke="#F3FAFD" stroke-width="0.8524" stroke-miterlimit="10" width="10.655" height="10.654"/>
		<rect x="454.487" y="496.33" fill="#F3FAFD" width="10.654" height="10.654"/>
		<rect x="454.487" y="510.193" fill="#F3FAFD" width="10.654" height="10.654"/>
		<rect x="469.083" y="510.193" fill="#F3FAFD" width="10.655" height="10.654"/>
		
			<rect x="483.681" y="510.193" fill="none" stroke="#F3FAFD" stroke-width="0.8524" stroke-miterlimit="10" width="10.654" height="10.654"/>
		<polyline fill="none" stroke="#F3FAFD" stroke-width="0.8524" stroke-miterlimit="10" points="452.215,486.922 448.308,486.922 
			448.308,500.133 448.308,516.895 452.853,516.895 		"/>
		
			<line fill="none" stroke="#F3FAFD" stroke-width="0.9995" stroke-miterlimit="10" x1="448.308" y1="500.559" x2="452.215" y2="500.559"/>
		<g>
			<polyline fill="none" stroke="#F3FAFD" stroke-width="0.8524" stroke-miterlimit="10" points="450.58,500.559 450.58,496.33 
				453.065,496.33 			"/>
			<polyline fill="none" stroke="#F3FAFD" stroke-width="0.8524" stroke-miterlimit="10" points="450.58,500.592 450.58,504.82 
				453.065,504.82 			"/>
		</g>
		<g>
			<g>
				<polyline fill="none" stroke="#F3FAFD" stroke-width="0.9995" stroke-miterlimit="10" points="450.58,486.922 450.58,484.08 
					453.065,484.08 				"/>
			</g>
			<g>
				<polyline fill="none" stroke="#F3FAFD" stroke-width="0.9995" stroke-miterlimit="10" points="450.58,486.635 450.58,489.477 
					453.065,489.477 				"/>
			</g>
		</g>
		<g>
			<g>
				<polyline fill="none" stroke="#F3FAFD" stroke-width="0.9995" stroke-miterlimit="10" points="450.58,517.039 450.58,514.195 
					453.065,514.195 				"/>
			</g>
			<g>
				<polyline fill="none" stroke="#F3FAFD" stroke-width="0.9995" stroke-miterlimit="10" points="450.58,516.752 450.58,519.594 
					453.065,519.594 				"/>
			</g>
		</g>
	</g>
	<g>
		<circle fill="#F3FAFD" cx="494.007" cy="470.498" r="8.516"/>
		
			<line fill="none" stroke="#62B4CE" stroke-width="0.4546" stroke-miterlimit="10" x1="489.214" y1="477.537" x2="498.106" y2="463.031"/>
		
			<line fill="none" stroke="#62B4CE" stroke-width="0.4546" stroke-miterlimit="10" x1="500.564" y1="475.932" x2="493.659" y2="470.014"/>
	</g>
	<g>
		<circle fill="#62B4CE" stroke="#F3FAFD" stroke-width="2.8412" stroke-miterlimit="10" cx="308.868" cy="291.998" r="19.888"/>
		<g>
			
				<line fill="none" stroke="#FFFFFF" stroke-width="0.8183" stroke-miterlimit="10" x1="301.374" y1="284.235" x2="301.374" y2="299.33"/>
			
				<line fill="none" stroke="#FFFFFF" stroke-width="0.6821" stroke-miterlimit="10" x1="301.191" y1="299.76" x2="316.545" y2="299.76"/>
			<rect x="303.112" y="293.697" fill="#FFFFFF" width="2.968" height="5.633"/>
			<rect x="307.115" y="289.4" fill="#FFFFFF" width="2.966" height="9.93"/>
			<rect x="311.118" y="286.592" fill="#FFFFFF" width="2.966" height="12.738"/>
		</g>
	</g>
	<g>
		
			<line fill="none" stroke="#FFFFFF" stroke-width="1.3638" stroke-miterlimit="10" x1="270.881" y1="421.324" x2="270.881" y2="446.484"/>
		
			<line fill="none" stroke="#FFFFFF" stroke-width="1.13" stroke-miterlimit="10" x1="270.576" y1="447.199" x2="295.867" y2="447.199"/>
		<rect x="274.622" y="425.254" fill="#FFFFFF" width="4.943" height="21.23"/>
		<rect x="281.293" y="430.574" fill="#FFFFFF" width="4.941" height="15.91"/>
		<rect x="287.964" y="437.414" fill="#FFFFFF" width="4.941" height="9.07"/>
		<g>
			<g>
				<polyline fill="none" stroke="#FFFFFF" stroke-width="1.13" stroke-miterlimit="10" points="273.33,420.1 286.234,429.654 
					291.544,429.654 295.777,433.697 				"/>
				<g>
					<path fill="#FFFFFF" d="M297.256,435.109c-0.943-0.406-2.228-0.791-3.209-0.836l1.535-0.762l0.692-1.568
						C296.364,432.922,296.807,434.188,297.256,435.109z"/>
				</g>
			</g>
		</g>
	</g>
	<g>
		<circle fill="#62B4CE" stroke="#F3FAFD" stroke-width="2.8412" stroke-miterlimit="10" cx="577.425" cy="394.76" r="33.148"/>
		<g>
			<polyline fill="none" stroke="#FFFFFF" stroke-width="2.2601" stroke-miterlimit="10" points="559.722,379.76 559.722,411.297 
				598.74,411.297 			"/>
			<rect x="566.161" y="388.758" fill="#FFFFFF" width="6.063" height="6.916"/>
			<g>
				
					<line fill="none" stroke="#FFFFFF" stroke-width="1.1089" stroke-miterlimit="10" x1="569.146" y1="385.539" x2="569.146" y2="399.109"/>
				<g>
					
						<line fill="none" stroke="#FFFFFF" stroke-width="1.2566" stroke-miterlimit="10" x1="567.157" y1="385.539" x2="571.133" y2="385.539"/>
					
						<line fill="none" stroke="#FFFFFF" stroke-width="1.2566" stroke-miterlimit="10" x1="567.157" y1="399.109" x2="571.133" y2="399.109"/>
				</g>
			</g>
			<g>
				<rect x="576.201" y="383.688" fill="#FFFFFF" width="6.061" height="15.725"/>
				
					<line fill="none" stroke="#FFFFFF" stroke-width="1.456" stroke-miterlimit="10" x1="578.972" y1="379.76" x2="578.972" y2="403.154"/>
				
					<line fill="none" stroke="#FFFFFF" stroke-width="1.1365" stroke-miterlimit="10" x1="575.941" y1="379.76" x2="582.001" y2="379.76"/>
				
					<line fill="none" stroke="#FFFFFF" stroke-width="1.1365" stroke-miterlimit="10" x1="575.941" y1="403.154" x2="582.001" y2="403.154"/>
			</g>
			<g>
				<rect x="585.86" y="392.215" fill="#FFFFFF" width="6.063" height="10.939"/>
				
					<line fill="none" stroke="#FFFFFF" stroke-width="1.2566" stroke-miterlimit="10" x1="588.891" y1="388.758" x2="588.891" y2="406.184"/>
				
					<line fill="none" stroke="#FFFFFF" stroke-width="1.2123" stroke-miterlimit="10" x1="585.86" y1="388.758" x2="591.923" y2="388.758"/>
				
					<line fill="none" stroke="#FFFFFF" stroke-width="1.2123" stroke-miterlimit="10" x1="585.86" y1="406.184" x2="591.923" y2="406.184"/>
			</g>
		</g>
		
			<line fill="none" stroke="#FFFFFF" stroke-width="0.7103" stroke-miterlimit="10" x1="562.628" y1="411.297" x2="562.628" y2="415.242"/>
		
			<line fill="none" stroke="#FFFFFF" stroke-width="0.7103" stroke-miterlimit="10" x1="567.881" y1="411.297" x2="567.881" y2="415.242"/>
		
			<line fill="none" stroke="#FFFFFF" stroke-width="0.7103" stroke-miterlimit="10" x1="573.134" y1="411.297" x2="573.134" y2="415.242"/>
		
			<line fill="none" stroke="#FFFFFF" stroke-width="0.7103" stroke-miterlimit="10" x1="578.386" y1="411.297" x2="578.386" y2="415.242"/>
		
			<line fill="none" stroke="#FFFFFF" stroke-width="0.7103" stroke-miterlimit="10" x1="583.639" y1="411.297" x2="583.639" y2="415.242"/>
		
			<line fill="none" stroke="#FFFFFF" stroke-width="0.7103" stroke-miterlimit="10" x1="588.891" y1="411.297" x2="588.891" y2="415.242"/>
	</g>
</g>
<text transform="matrix(1 0 0 1 166.3242 119.1353)" fill="#FFFFFF" font-family="'MyriadPro-Regular'" font-size="48">Video tutorial coming soon</text>
</svg>
