<?xml version="1.0" encoding="utf-8"?>
<!-- Generator: Adobe Illustrator 16.0.0, SVG Export Plug-In . SVG Version: 6.00 Build 0)  -->
<!DOCTYPE svg PUBLIC "-//W3C//DTD SVG 1.1//EN" "http://www.w3.org/Graphics/SVG/1.1/DTD/svg11.dtd">
<svg version="1.1" id="Layer_1" xmlns="http://www.w3.org/2000/svg" xmlns:xlink="http://www.w3.org/1999/xlink" x="0px" y="0px"
	 width="841.89px" height="595.281px" viewBox="0 0 841.89 595.281" enable-background="new 0 0 841.89 595.281"
	 xml:space="preserve">
<rect y="1" width="841.89" height="595.28"/>
<g>
	<circle fill="#01304A" cx="620.849" cy="200.7" r="86.657"/>
	<circle fill="#01304A" cx="221.041" cy="297.109" r="86.656"/>
	<circle fill="#01304A" cx="257.281" cy="116.433" r="51.993"/>
	<circle fill="#01304A" cx="238.964" cy="520.256" r="51.993"/>
	<circle fill="#01304A" cx="335.359" cy="427.615" r="71.172"/>
	<circle fill="#01304A" cx="383.281" cy="124.47" r="86.656"/>
	<circle fill="#01304A" cx="613.39" cy="425.947" r="86.657"/>
	<circle fill="#004D78" cx="596.416" cy="237.832" r="21.309"/>
	<circle fill="#004D78" cx="535.533" cy="318.419" r="21.31"/>
	<circle fill="#004D78" cx="310.03" cy="209.823" r="21.309"/>
	<circle fill="#004D78" cx="662.257" cy="306.46" r="21.31"/>
	<circle fill="#004D78" cx="210.033" cy="114.043" r="21.309"/>
	<circle fill="#004D78" cx="367.534" cy="523.504" r="21.309"/>
	<circle fill="#004D78" cx="315.069" cy="468.774" r="21.309"/>
	<circle fill="#004D78" cx="193.499" cy="487.384" r="21.309"/>
	<circle fill="#004D78" cx="550.861" cy="432.754" r="21.309"/>
	<circle fill="#004D78" cx="203.506" cy="350.21" r="21.309"/>
	<circle fill="#62B4CE" stroke="#F3FAFD" stroke-width="4.2618" stroke-miterlimit="10" cx="401.82" cy="303.312" r="124.302"/>
	<circle fill="#62B4CE" stroke="#F3FAFD" stroke-width="2.8412" stroke-miterlimit="10" cx="479.703" cy="503.77" r="59.665"/>
	<circle fill="#62B4CE" stroke="#F3FAFD" stroke-width="2.8412" stroke-miterlimit="10" cx="190.021" cy="413.501" r="34.805"/>
	<circle fill="#62B4CE" stroke="#F3FAFD" stroke-width="2.8412" stroke-miterlimit="10" cx="327.215" cy="74.75" r="49.719"/>
	<g>
		<g>
			
				<line fill="none" stroke="#FFFFFF" stroke-width="3.4094" stroke-miterlimit="10" x1="322.378" y1="259.285" x2="322.378" y2="353.63"/>
			
				<line fill="none" stroke="#FFFFFF" stroke-width="3.4094" stroke-miterlimit="10" x1="321.234" y1="356.317" x2="459.353" y2="356.317"/>
			<rect x="333.25" y="318.418" fill="#FFFFFF" width="18.537" height="35.212"/>
			<rect x="358.265" y="291.567" fill="#FFFFFF" width="18.537" height="62.063"/>
			<rect x="383.279" y="274.015" fill="#FFFFFF" width="18.541" height="79.615"/>
			<rect x="408.3" y="293.963" fill="#FFFFFF" width="18.533" height="59.667"/>
			<rect x="433.32" y="319.617" fill="#FFFFFF" width="18.529" height="34.014"/>
		</g>
		<g>
			<circle fill="none" stroke="#FFFFFF" stroke-width="1.7047" stroke-miterlimit="10" cx="437.833" cy="245.832" r="36.012"/>
			<path fill="none" stroke="#FFFFFF" stroke-width="1.7047" stroke-miterlimit="10" d="M410.114,222.842
				c0,0,28.739,29.865,53.458-0.82"/>
			<path fill="none" stroke="#FFFFFF" stroke-width="1.7047" stroke-miterlimit="10" d="M401.82,237.831c0,0,35.023,34.957,72.025,0
				"/>
			<path fill="none" stroke="#FFFFFF" stroke-width="1.7047" stroke-miterlimit="10" d="M403.085,255.321
				c0,0,37.092,32.171,70.76-2.344"/>
			<path fill="none" stroke="#FFFFFF" stroke-width="1.7047" stroke-miterlimit="10" d="M425.757,211.897
				c0,0-24.866,33.932-1.086,66.378"/>
			<path fill="none" stroke="#FFFFFF" stroke-width="1.7047" stroke-miterlimit="10" d="M449.908,211.897
				c0,0,18.715,39.794-0.941,68.191"/>
			
				<line fill="none" stroke="#FFFFFF" stroke-width="1.7047" stroke-miterlimit="10" x1="437.716" y1="208.542" x2="437.716" y2="283.337"/>
		</g>
	</g>
	<g>
		<g>
			
				<rect x="299.676" y="47.778" fill="none" stroke="#FFFFFF" stroke-width="1.3922" stroke-miterlimit="10" width="53.947" height="53.945"/>
			
				<line fill="none" stroke="#FFFFFF" stroke-width="0.6961" stroke-miterlimit="10" x1="299.676" y1="74.75" x2="354.754" y2="74.75"/>
			
				<line fill="none" stroke="#FFFFFF" stroke-width="0.6961" stroke-miterlimit="10" x1="327.216" y1="47.778" x2="327.216" y2="101.723"/>
		</g>
		<circle fill="#FDFDFE" stroke="#092134" stroke-width="0.4873" stroke-miterlimit="10" cx="312.022" cy="60.856" r="3.046"/>
		<circle fill="#FDFDFE" stroke="#092134" stroke-width="0.4873" stroke-miterlimit="10" cx="310.762" cy="69.029" r="3.046"/>
		<circle fill="#FDFDFE" stroke="#092134" stroke-width="0.4873" stroke-miterlimit="10" cx="319.166" cy="55.81" r="3.045"/>
		<circle fill="#FDFDFE" stroke="#092134" stroke-width="0.4873" stroke-miterlimit="10" cx="306.984" cy="52.766" r="3.045"/>
		<g>
			
				<line fill="none" stroke="#FFFFFF" stroke-width="0.348" stroke-miterlimit="10" x1="327.456" y1="69.028" x2="329.067" y2="69.028"/>
			
				<line fill="none" stroke="#FFFFFF" stroke-width="0.348" stroke-miterlimit="10" x1="327.456" y1="65.791" x2="329.067" y2="65.791"/>
			
				<line fill="none" stroke="#FFFFFF" stroke-width="0.348" stroke-miterlimit="10" x1="327.456" y1="62.556" x2="329.067" y2="62.556"/>
			
				<line fill="none" stroke="#FFFFFF" stroke-width="0.348" stroke-miterlimit="10" x1="327.456" y1="59.319" x2="329.067" y2="59.319"/>
			
				<line fill="none" stroke="#FFFFFF" stroke-width="0.348" stroke-miterlimit="10" x1="327.456" y1="56.082" x2="329.067" y2="56.082"/>
			
				<line fill="none" stroke="#FFFFFF" stroke-width="0.348" stroke-miterlimit="10" x1="327.456" y1="52.844" x2="329.067" y2="52.844"/>
		</g>
		<g>
			
				<line fill="none" stroke="#FFFFFF" stroke-width="0.348" stroke-miterlimit="10" x1="329.067" y1="82.082" x2="327.456" y2="82.082"/>
			
				<line fill="none" stroke="#FFFFFF" stroke-width="0.348" stroke-miterlimit="10" x1="329.067" y1="85.319" x2="327.456" y2="85.319"/>
			
				<line fill="none" stroke="#FFFFFF" stroke-width="0.348" stroke-miterlimit="10" x1="329.067" y1="88.554" x2="327.456" y2="88.554"/>
			
				<line fill="none" stroke="#FFFFFF" stroke-width="0.348" stroke-miterlimit="10" x1="329.067" y1="91.791" x2="327.456" y2="91.791"/>
			
				<line fill="none" stroke="#FFFFFF" stroke-width="0.348" stroke-miterlimit="10" x1="329.067" y1="95.026" x2="327.456" y2="95.026"/>
			
				<line fill="none" stroke="#FFFFFF" stroke-width="0.348" stroke-miterlimit="10" x1="329.067" y1="98.265" x2="327.456" y2="98.265"/>
		</g>
		<g>
			
				<line fill="none" stroke="#FFFFFF" stroke-width="0.348" stroke-miterlimit="10" x1="305.548" y1="74.75" x2="305.548" y2="76.36"/>
			
				<line fill="none" stroke="#FFFFFF" stroke-width="0.348" stroke-miterlimit="10" x1="308.787" y1="74.75" x2="308.787" y2="76.36"/>
			
				<line fill="none" stroke="#FFFFFF" stroke-width="0.348" stroke-miterlimit="10" x1="312.023" y1="74.75" x2="312.023" y2="76.36"/>
			
				<line fill="none" stroke="#FFFFFF" stroke-width="0.348" stroke-miterlimit="10" x1="315.261" y1="74.75" x2="315.261" y2="76.36"/>
			
				<line fill="none" stroke="#FFFFFF" stroke-width="0.348" stroke-miterlimit="10" x1="318.497" y1="74.75" x2="318.497" y2="76.36"/>
			
				<line fill="none" stroke="#FFFFFF" stroke-width="0.348" stroke-miterlimit="10" x1="321.732" y1="74.75" x2="321.732" y2="76.36"/>
		</g>
		<g>
			
				<line fill="none" stroke="#FFFFFF" stroke-width="0.348" stroke-miterlimit="10" x1="332.125" y1="74.75" x2="332.125" y2="76.36"/>
			
				<line fill="none" stroke="#FFFFFF" stroke-width="0.348" stroke-miterlimit="10" x1="335.359" y1="74.75" x2="335.359" y2="76.36"/>
			
				<line fill="none" stroke="#FFFFFF" stroke-width="0.348" stroke-miterlimit="10" x1="338.595" y1="74.75" x2="338.595" y2="76.36"/>
			
				<line fill="none" stroke="#FFFFFF" stroke-width="0.348" stroke-miterlimit="10" x1="341.834" y1="74.75" x2="341.834" y2="76.36"/>
			
				<line fill="none" stroke="#FFFFFF" stroke-width="0.348" stroke-miterlimit="10" x1="345.07" y1="74.75" x2="345.07" y2="76.36"/>
			
				<line fill="none" stroke="#FFFFFF" stroke-width="0.348" stroke-miterlimit="10" x1="348.306" y1="74.75" x2="348.306" y2="76.36"/>
		</g>
		
			<rect x="333.091" y="86.541" fill="#FDFDFE" stroke="#092134" stroke-width="0.4873" stroke-miterlimit="10" width="3.52" height="3.524"/>
		
			<rect x="339.746" y="92.283" fill="#FDFDFE" stroke="#092134" stroke-width="0.4873" stroke-miterlimit="10" width="3.524" height="3.524"/>
		
			<rect x="341.506" y="86.791" fill="#FDFDFE" stroke="#092134" stroke-width="0.4873" stroke-miterlimit="10" width="3.524" height="3.526"/>
		
			<rect x="333.091" y="79.22" fill="#FDFDFE" stroke="#092134" stroke-width="0.4873" stroke-miterlimit="10" width="3.52" height="3.526"/>
	</g>
	<g>
		<circle fill="#62B4CE" stroke="#F3FAFD" stroke-width="2.8412" stroke-miterlimit="10" cx="536.75" cy="134.289" r="59.664"/>
		<g>
			<path fill="none" stroke="#FDFDFE" stroke-width="1.1365" stroke-miterlimit="10" d="M586.187,140.884
				c0,11.299-9.16,20.458-20.457,20.458h-57.961c-11.297,0-20.459-9.159-20.459-20.458v-13.195c0-11.297,9.162-20.455,20.459-20.455
				h57.961c11.293,0,20.457,9.158,20.457,20.455V140.884z"/>
			<g>
				<g>
					
						<line fill="none" stroke="#FDFDFE" stroke-width="0.8631" stroke-miterlimit="10" x1="526.486" y1="152.14" x2="575.242" y2="152.14"/>
					
						<line fill="none" stroke="#FDFDFE" stroke-width="0.6819" stroke-miterlimit="10" x1="552.097" y1="128.048" x2="552.097" y2="152.063"/>
					<circle fill="#FDFDFE" cx="533.652" cy="124.048" r="1.882"/>
					<circle fill="#FDFDFE" cx="541.152" cy="128.047" r="1.883"/>
					<circle fill="#FDFDFE" cx="559.029" cy="131.813" r="1.881"/>
					<circle fill="#FDFDFE" cx="549.5" cy="149.115" r="1.882"/>
					<circle fill="#FDFDFE" cx="547.619" cy="145.324" r="1.882"/>
					<circle fill="#FDFDFE" cx="545.734" cy="147.346" r="1.882"/>
					<circle fill="#FDFDFE" cx="545.734" cy="143.44" r="1.882"/>
					<circle fill="#FDFDFE" cx="547.619" cy="140.25" r="1.882"/>
					<circle fill="#FDFDFE" cx="543.851" cy="134.794" r="1.883"/>
					<circle fill="#FDFDFE" cx="564.373" cy="124.048" r="1.882"/>
					<circle fill="#FDFDFE" cx="567.314" cy="136.483" r="1.883"/>
					<circle fill="#FDFDFE" cx="535.533" cy="132.914" r="1.883"/>
					<circle fill="#FDFDFE" cx="537.417" cy="138.368" r="1.882"/>
					<circle fill="#FDFDFE" cx="543.037" cy="145.324" r="1.882"/>
					<circle fill="#FDFDFE" cx="555.267" cy="149.116" r="1.881"/>
					<circle fill="#FDFDFE" cx="557.148" cy="145.324" r="1.882"/>
					<circle fill="#FDFDFE" cx="559.029" cy="147.346" r="1.881"/>
					<circle fill="#FDFDFE" cx="559.029" cy="143.441" r="1.881"/>
					<circle fill="#FDFDFE" cx="562.794" cy="144.649" r="1.884"/>
					<circle fill="#FDFDFE" cx="557.148" cy="140.25" r="1.882"/>
					<circle fill="#FDFDFE" cx="560.914" cy="140.25" r="1.882"/>
					<g>
						<g>
							
								<line fill="none" stroke="#FDFDFE" stroke-width="0.3409" stroke-miterlimit="10" x1="547.244" y1="128.445" x2="547.244" y2="129.212"/>
							
								<line fill="none" stroke="#FDFDFE" stroke-width="0.3409" stroke-miterlimit="10" stroke-dasharray="0.9811,0.9811" x1="547.244" y1="130.685" x2="547.244" y2="150.551"/>
							
								<line fill="none" stroke="#FDFDFE" stroke-width="0.3409" stroke-miterlimit="10" x1="547.244" y1="151.287" x2="547.244" y2="152.054"/>
						</g>
					</g>
					<g>
						<g>
							
								<line fill="none" stroke="#FDFDFE" stroke-width="0.3409" stroke-miterlimit="10" x1="557.148" y1="128.445" x2="557.148" y2="129.212"/>
							
								<line fill="none" stroke="#FDFDFE" stroke-width="0.3409" stroke-miterlimit="10" stroke-dasharray="0.9811,0.9811" x1="557.148" y1="130.685" x2="557.148" y2="150.551"/>
							
								<line fill="none" stroke="#FDFDFE" stroke-width="0.3409" stroke-miterlimit="10" x1="557.148" y1="151.287" x2="557.148" y2="152.054"/>
						</g>
					</g>
					
						<line fill="none" stroke="#FDFDFE" stroke-width="0.7898" stroke-miterlimit="10" x1="526.486" y1="122.167" x2="526.486" y2="152.14"/>
				</g>
				
					<rect x="498.261" y="116.433" fill="none" stroke="#FDFDFE" stroke-width="0.9918" stroke-miterlimit="10" width="20.834" height="35.707"/>
				<rect x="500.568" y="121.405" fill="#D0D2D1" width="16.215" height="2.645"/>
				<rect x="500.568" y="126.745" fill="#D0D2D1" width="16.215" height="2.643"/>
				<rect x="500.568" y="132.086" fill="#D0D2D1" width="16.215" height="2.643"/>
				<rect x="500.568" y="137.429" fill="#D0D2D1" width="16.215" height="2.643"/>
				<rect x="500.568" y="142.768" fill="#D0D2D1" width="16.215" height="2.643"/>
			</g>
		</g>
	</g>
	<g>
		<rect x="445.878" y="487.382" fill="#F3FAFD" width="15.979" height="15.981"/>
		
			<rect x="468.412" y="487.382" fill="none" stroke="#F3FAFD" stroke-width="0.8524" stroke-miterlimit="10" width="15.984" height="15.981"/>
		<rect x="489.669" y="487.382" fill="#F3FAFD" width="15.98" height="15.981"/>
		<rect x="489.669" y="507.521" fill="#F3FAFD" width="15.98" height="15.981"/>
		
			<rect x="467.773" y="507.521" fill="none" stroke="#F3FAFD" stroke-width="0.8524" stroke-miterlimit="10" width="15.98" height="15.981"/>
		<rect x="445.878" y="507.521" fill="#F3FAFD" width="15.979" height="15.981"/>
		<rect x="445.878" y="528.316" fill="#F3FAFD" width="15.979" height="15.981"/>
		<rect x="467.773" y="528.316" fill="#F3FAFD" width="15.98" height="15.981"/>
		
			<rect x="489.669" y="528.316" fill="none" stroke="#F3FAFD" stroke-width="0.8524" stroke-miterlimit="10" width="15.98" height="15.981"/>
		<polyline fill="none" stroke="#F3FAFD" stroke-width="0.8524" stroke-miterlimit="10" points="442.468,493.409 436.609,493.409 
			436.609,513.225 436.609,538.371 443.427,538.371 		"/>
		
			<line fill="none" stroke="#F3FAFD" stroke-width="0.9995" stroke-miterlimit="10" x1="436.609" y1="513.864" x2="442.468" y2="513.864"/>
		<g>
			<polyline fill="none" stroke="#F3FAFD" stroke-width="0.8524" stroke-miterlimit="10" points="440.017,513.864 440.017,507.521 
				443.746,507.521 			"/>
			<polyline fill="none" stroke="#F3FAFD" stroke-width="0.8524" stroke-miterlimit="10" points="440.017,513.914 440.017,520.256 
				443.746,520.256 			"/>
		</g>
		<g>
			<g>
				<polyline fill="none" stroke="#F3FAFD" stroke-width="0.9995" stroke-miterlimit="10" points="440.017,493.409 440.017,489.146 
					443.746,489.146 				"/>
			</g>
			<g>
				<polyline fill="none" stroke="#F3FAFD" stroke-width="0.9995" stroke-miterlimit="10" points="440.017,492.978 440.017,497.241 
					443.746,497.241 				"/>
			</g>
		</g>
		<g>
			<g>
				<polyline fill="none" stroke="#F3FAFD" stroke-width="0.9995" stroke-miterlimit="10" points="440.017,538.584 440.017,534.319 
					443.746,534.319 				"/>
			</g>
			<g>
				<polyline fill="none" stroke="#F3FAFD" stroke-width="0.9995" stroke-miterlimit="10" points="440.017,538.154 440.017,542.417 
					443.746,542.417 				"/>
			</g>
		</g>
	</g>
	<g>
		<circle fill="#F3FAFD" cx="505.158" cy="468.773" r="12.773"/>
		
			<line fill="none" stroke="#62B4CE" stroke-width="0.4546" stroke-miterlimit="10" x1="497.968" y1="479.332" x2="511.308" y2="457.573"/>
		
			<line fill="none" stroke="#62B4CE" stroke-width="0.4546" stroke-miterlimit="10" x1="514.994" y1="476.923" x2="504.636" y2="468.046"/>
	</g>
	<g>
		<circle fill="#62B4CE" stroke="#F3FAFD" stroke-width="2.8412" stroke-miterlimit="10" cx="227.449" cy="201.023" r="29.832"/>
		<g>
			
				<line fill="none" stroke="#FFFFFF" stroke-width="0.8183" stroke-miterlimit="10" x1="216.208" y1="189.378" x2="216.208" y2="212.02"/>
			
				<line fill="none" stroke="#FFFFFF" stroke-width="0.6821" stroke-miterlimit="10" x1="215.934" y1="212.665" x2="238.964" y2="212.665"/>
			<rect x="218.816" y="203.571" fill="#FFFFFF" width="4.451" height="8.449"/>
			<rect x="224.82" y="197.125" fill="#FFFFFF" width="4.449" height="14.895"/>
			<rect x="230.824" y="192.913" fill="#FFFFFF" width="4.449" height="19.107"/>
		</g>
	</g>
	<g>
		
			<line fill="none" stroke="#FFFFFF" stroke-width="1.3638" stroke-miterlimit="10" x1="170.468" y1="395.012" x2="170.468" y2="432.752"/>
		
			<line fill="none" stroke="#FFFFFF" stroke-width="1.13" stroke-miterlimit="10" x1="170.011" y1="433.825" x2="207.948" y2="433.825"/>
		<rect x="176.08" y="400.907" fill="#FFFFFF" width="7.416" height="31.846"/>
		<rect x="186.086" y="408.887" fill="#FFFFFF" width="7.412" height="23.865"/>
		<rect x="196.093" y="419.147" fill="#FFFFFF" width="7.412" height="13.605"/>
		<g>
			<g>
				<polyline fill="none" stroke="#FFFFFF" stroke-width="1.13" stroke-miterlimit="10" points="174.142,393.175 193.499,407.507 
					201.462,407.507 207.813,413.572 				"/>
				<g>
					<path fill="#FFFFFF" d="M210.031,415.69c-1.414-0.609-3.342-1.187-4.813-1.254l2.303-1.143l1.038-2.353
						C208.693,412.409,209.359,414.31,210.031,415.69z"/>
				</g>
			</g>
		</g>
	</g>
	<g>
		<circle fill="#62B4CE" stroke="#F3FAFD" stroke-width="2.8412" stroke-miterlimit="10" cx="630.285" cy="355.166" r="49.723"/>
		<g>
			<polyline fill="none" stroke="#FFFFFF" stroke-width="2.2601" stroke-miterlimit="10" points="603.73,332.666 603.73,379.971 
				662.257,379.971 			"/>
			<rect x="613.39" y="346.163" fill="#FFFFFF" width="9.094" height="10.374"/>
			<g>
				
					<line fill="none" stroke="#FFFFFF" stroke-width="1.1089" stroke-miterlimit="10" x1="617.867" y1="341.334" x2="617.867" y2="361.69"/>
				<g>
					
						<line fill="none" stroke="#FFFFFF" stroke-width="1.2566" stroke-miterlimit="10" x1="614.884" y1="341.334" x2="620.845" y2="341.334"/>
					
						<line fill="none" stroke="#FFFFFF" stroke-width="1.2566" stroke-miterlimit="10" x1="614.884" y1="361.69" x2="620.845" y2="361.69"/>
				</g>
			</g>
			<g>
				<rect x="628.449" y="338.557" fill="#FFFFFF" width="9.09" height="23.59"/>
				
					<line fill="none" stroke="#FFFFFF" stroke-width="1.456" stroke-miterlimit="10" x1="632.605" y1="332.666" x2="632.605" y2="367.757"/>
				
					<line fill="none" stroke="#FFFFFF" stroke-width="1.1365" stroke-miterlimit="10" x1="628.058" y1="332.666" x2="637.15" y2="332.666"/>
				
					<line fill="none" stroke="#FFFFFF" stroke-width="1.1365" stroke-miterlimit="10" x1="628.058" y1="367.757" x2="637.15" y2="367.757"/>
			</g>
			<g>
				<rect x="642.939" y="351.348" fill="#FFFFFF" width="9.094" height="16.409"/>
				
					<line fill="none" stroke="#FFFFFF" stroke-width="1.2566" stroke-miterlimit="10" x1="647.482" y1="346.163" x2="647.482" y2="372.301"/>
				
					<line fill="none" stroke="#FFFFFF" stroke-width="1.2123" stroke-miterlimit="10" x1="642.939" y1="346.163" x2="652.033" y2="346.163"/>
				
					<line fill="none" stroke="#FFFFFF" stroke-width="1.2123" stroke-miterlimit="10" x1="642.939" y1="372.301" x2="652.033" y2="372.301"/>
			</g>
		</g>
		
			<line fill="none" stroke="#FFFFFF" stroke-width="0.7103" stroke-miterlimit="10" x1="608.089" y1="379.971" x2="608.089" y2="385.889"/>
		
			<line fill="none" stroke="#FFFFFF" stroke-width="0.7103" stroke-miterlimit="10" x1="615.968" y1="379.971" x2="615.968" y2="385.889"/>
		
			<line fill="none" stroke="#FFFFFF" stroke-width="0.7103" stroke-miterlimit="10" x1="623.849" y1="379.971" x2="623.849" y2="385.889"/>
		
			<line fill="none" stroke="#FFFFFF" stroke-width="0.7103" stroke-miterlimit="10" x1="631.726" y1="379.971" x2="631.726" y2="385.889"/>
		
			<line fill="none" stroke="#FFFFFF" stroke-width="0.7103" stroke-miterlimit="10" x1="639.605" y1="379.971" x2="639.605" y2="385.889"/>
		
			<line fill="none" stroke="#FFFFFF" stroke-width="0.7103" stroke-miterlimit="10" x1="647.482" y1="379.971" x2="647.482" y2="385.889"/>
	</g>
</g>
</svg>
