<?xml version="1.0" encoding="utf-8"?>
<!-- Generator: Adobe Illustrator 16.0.0, SVG Export Plug-In . SVG Version: 6.00 Build 0)  -->
<!DOCTYPE svg PUBLIC "-//W3C//DTD SVG 1.1//EN" "http://www.w3.org/Graphics/SVG/1.1/DTD/svg11.dtd">
<svg version="1.1" xmlns="http://www.w3.org/2000/svg" xmlns:xlink="http://www.w3.org/1999/xlink" x="0px" y="0px"
	 width="841.89px" height="595.28px" viewBox="0 0 841.89 595.28" enable-background="new 0 0 841.89 595.28" xml:space="preserve">
<g id="Layer_1">
	<rect y="-1" width="841.89" height="595.28"/>
</g>
<g id="Layer_2">
	<g>
		<text transform="matrix(1 0 0 1 12.1108 213.5898)"><tspan x="0" y="0" fill="#62B4CE" font-family="'MyriadPro-Bold'" font-size="48">proteomics</tspan><tspan x="0" y="57.6" fill="#62B4CE" font-family="'MyriadPro-Bold'" font-size="48">data analysis</tspan><tspan x="0" y="115.199" fill="#62B4CE" font-family="'MyriadPro-Bold'" font-size="48">solutions</tspan></text>
	</g>
	<g>
		<text transform="matrix(1 0 0 1 12.1108 412.7744)"><tspan x="0" y="0" fill="#62B4CE" font-family="'MyriadPro-Bold'" font-size="21">Analyse label free proteomics</tspan><tspan x="0" y="25.2" fill="#62B4CE" font-family="'MyriadPro-Bold'" font-size="21">data in minutes. Currently </tspan><tspan x="0" y="50.4" fill="#62B4CE" font-family="'MyriadPro-Bold'" font-size="21">compatible with maxQuant </tspan><tspan x="0" y="75.6" fill="#62B4CE" font-family="'MyriadPro-Bold'" font-size="21">output.</tspan></text>
	</g>
	<g>
		<circle fill="#01304A" cx="757.723" cy="211.948" r="80.52"/>
		<circle fill="#01304A" cx="386.225" cy="301.529" r="80.52"/>
		<circle fill="#01304A" cx="419.899" cy="133.647" r="48.312"/>
		<circle fill="#01304A" cx="402.879" cy="508.877" r="48.312"/>
		<circle fill="#01304A" cx="492.449" cy="422.795" r="66.132"/>
		<circle fill="#01304A" cx="536.978" cy="141.116" r="80.521"/>
		<circle fill="#01304A" cx="750.793" cy="421.246" r="80.52"/>
		<circle fill="#004D78" cx="735.02" cy="246.449" r="19.8"/>
		<circle fill="#004D78" cx="678.45" cy="321.331" r="19.8"/>
		<circle fill="#004D78" cx="468.913" cy="220.424" r="19.8"/>
		<circle fill="#004D78" cx="796.2" cy="310.219" r="19.8"/>
		<circle fill="#004D78" cx="375.996" cy="131.428" r="19.8"/>
		<circle fill="#004D78" cx="522.345" cy="511.893" r="19.8"/>
		<circle fill="#004D78" cx="473.596" cy="461.039" r="19.8"/>
		<circle fill="#004D78" cx="360.633" cy="478.332" r="19.8"/>
		<circle fill="#004D78" cx="692.691" cy="427.57" r="19.8"/>
		<circle fill="#004D78" cx="369.932" cy="350.871" r="19.8"/>
		<circle fill="#62B4CE" stroke="#F3FAFD" stroke-width="5.94" stroke-miterlimit="10" cx="554.204" cy="307.296" r="115.501"/>
		<circle fill="#62B4CE" stroke="#F3FAFD" stroke-width="3.96" stroke-miterlimit="10" cx="626.572" cy="493.557" r="55.44"/>
		<circle fill="#62B4CE" stroke="#F3FAFD" stroke-width="3.96" stroke-miterlimit="10" cx="357.401" cy="409.682" r="32.34"/>
		<circle fill="#62B4CE" stroke="#F3FAFD" stroke-width="3.96" stroke-miterlimit="10" cx="484.882" cy="94.917" r="46.199"/>
		<g>
			<g>
				
					<line fill="none" stroke="#FFFFFF" stroke-width="4.752" stroke-miterlimit="10" x1="480.387" y1="266.386" x2="480.387" y2="354.051"/>
				
					<line fill="none" stroke="#FFFFFF" stroke-width="4.752" stroke-miterlimit="10" x1="479.324" y1="356.547" x2="607.663" y2="356.547"/>
				<rect x="490.488" y="321.331" fill="#FFFFFF" width="17.226" height="32.72"/>
				<rect x="513.733" y="296.382" fill="#FFFFFF" width="17.225" height="57.669"/>
				<rect x="536.977" y="280.074" fill="#FFFFFF" width="17.227" height="73.977"/>
				<rect x="560.225" y="298.609" fill="#FFFFFF" width="17.221" height="55.441"/>
				<rect x="583.473" y="322.445" fill="#FFFFFF" width="17.22" height="31.605"/>
			</g>
			<g>
				<circle fill="none" stroke="#FFFFFF" stroke-width="2.376" stroke-miterlimit="10" cx="587.666" cy="253.885" r="33.463"/>
				<path fill="none" stroke="#FFFFFF" stroke-width="2.376" stroke-miterlimit="10" d="M561.911,232.523
					c0,0,26.702,27.751,49.67-0.762"/>
				<path fill="none" stroke="#FFFFFF" stroke-width="2.376" stroke-miterlimit="10" d="M554.203,246.449
					c0,0,32.543,32.484,66.926,0"/>
				<path fill="none" stroke="#FFFFFF" stroke-width="2.376" stroke-miterlimit="10" d="M555.379,262.703
					c0,0,34.465,29.891,65.75-2.179"/>
				<path fill="none" stroke="#FFFFFF" stroke-width="2.376" stroke-miterlimit="10" d="M576.445,222.354
					c0,0-23.104,31.527-1.007,61.678"/>
				<path fill="none" stroke="#FFFFFF" stroke-width="2.376" stroke-miterlimit="10" d="M598.887,222.354
					c0,0,17.389,36.976-0.876,63.36"/>
				
					<line fill="none" stroke="#FFFFFF" stroke-width="2.376" stroke-miterlimit="10" x1="587.558" y1="219.235" x2="587.558" y2="288.734"/>
			</g>
		</g>
		<g>
			<g>
				
					<rect x="459.293" y="69.854" fill="none" stroke="#FFFFFF" stroke-width="1.9404" stroke-miterlimit="10" width="50.127" height="50.126"/>
				
					<line fill="none" stroke="#FFFFFF" stroke-width="0.9702" stroke-miterlimit="10" x1="459.293" y1="94.916" x2="510.471" y2="94.916"/>
				
					<line fill="none" stroke="#FFFFFF" stroke-width="0.9702" stroke-miterlimit="10" x1="484.883" y1="69.854" x2="484.883" y2="119.98"/>
			</g>
			<circle fill="#FDFDFE" stroke="#092134" stroke-width="0.6791" stroke-miterlimit="10" cx="470.765" cy="82.006" r="2.831"/>
			<circle fill="#FDFDFE" stroke="#092134" stroke-width="0.6791" stroke-miterlimit="10" cx="469.593" cy="89.6" r="2.831"/>
			<circle fill="#FDFDFE" stroke="#092134" stroke-width="0.6791" stroke-miterlimit="10" cx="477.403" cy="77.318" r="2.829"/>
			<circle fill="#FDFDFE" stroke="#092134" stroke-width="0.6791" stroke-miterlimit="10" cx="466.083" cy="74.488" r="2.829"/>
			<g>
				
					<line fill="none" stroke="#FFFFFF" stroke-width="0.4851" stroke-miterlimit="10" x1="485.104" y1="89.601" x2="486.602" y2="89.601"/>
				
					<line fill="none" stroke="#FFFFFF" stroke-width="0.4851" stroke-miterlimit="10" x1="485.104" y1="86.592" x2="486.602" y2="86.592"/>
				
					<line fill="none" stroke="#FFFFFF" stroke-width="0.4851" stroke-miterlimit="10" x1="485.104" y1="83.585" x2="486.602" y2="83.585"/>
				
					<line fill="none" stroke="#FFFFFF" stroke-width="0.4851" stroke-miterlimit="10" x1="485.104" y1="80.577" x2="486.602" y2="80.577"/>
				
					<line fill="none" stroke="#FFFFFF" stroke-width="0.4851" stroke-miterlimit="10" x1="485.104" y1="77.57" x2="486.602" y2="77.57"/>
				
					<line fill="none" stroke="#FFFFFF" stroke-width="0.4851" stroke-miterlimit="10" x1="485.104" y1="74.562" x2="486.602" y2="74.562"/>
			</g>
			<g>
				
					<line fill="none" stroke="#FFFFFF" stroke-width="0.4851" stroke-miterlimit="10" x1="486.602" y1="101.728" x2="485.104" y2="101.728"/>
				
					<line fill="none" stroke="#FFFFFF" stroke-width="0.4851" stroke-miterlimit="10" x1="486.602" y1="104.736" x2="485.104" y2="104.736"/>
				
					<line fill="none" stroke="#FFFFFF" stroke-width="0.4851" stroke-miterlimit="10" x1="486.602" y1="107.742" x2="485.104" y2="107.742"/>
				
					<line fill="none" stroke="#FFFFFF" stroke-width="0.4851" stroke-miterlimit="10" x1="486.602" y1="110.75" x2="485.104" y2="110.75"/>
				
					<line fill="none" stroke="#FFFFFF" stroke-width="0.4851" stroke-miterlimit="10" x1="486.602" y1="113.758" x2="485.104" y2="113.758"/>
				
					<line fill="none" stroke="#FFFFFF" stroke-width="0.4851" stroke-miterlimit="10" x1="486.602" y1="116.766" x2="485.104" y2="116.766"/>
			</g>
			<g>
				
					<line fill="none" stroke="#FFFFFF" stroke-width="0.4851" stroke-miterlimit="10" x1="464.75" y1="94.916" x2="464.75" y2="96.412"/>
				
					<line fill="none" stroke="#FFFFFF" stroke-width="0.4851" stroke-miterlimit="10" x1="467.758" y1="94.916" x2="467.758" y2="96.412"/>
				
					<line fill="none" stroke="#FFFFFF" stroke-width="0.4851" stroke-miterlimit="10" x1="470.766" y1="94.916" x2="470.766" y2="96.412"/>
				
					<line fill="none" stroke="#FFFFFF" stroke-width="0.4851" stroke-miterlimit="10" x1="473.773" y1="94.916" x2="473.773" y2="96.412"/>
				
					<line fill="none" stroke="#FFFFFF" stroke-width="0.4851" stroke-miterlimit="10" x1="476.78" y1="94.916" x2="476.78" y2="96.412"/>
				
					<line fill="none" stroke="#FFFFFF" stroke-width="0.4851" stroke-miterlimit="10" x1="479.787" y1="94.916" x2="479.787" y2="96.412"/>
			</g>
			<g>
				
					<line fill="none" stroke="#FFFFFF" stroke-width="0.4851" stroke-miterlimit="10" x1="489.443" y1="94.916" x2="489.443" y2="96.412"/>
				
					<line fill="none" stroke="#FFFFFF" stroke-width="0.4851" stroke-miterlimit="10" x1="492.448" y1="94.916" x2="492.448" y2="96.412"/>
				
					<line fill="none" stroke="#FFFFFF" stroke-width="0.4851" stroke-miterlimit="10" x1="495.457" y1="94.916" x2="495.457" y2="96.412"/>
				
					<line fill="none" stroke="#FFFFFF" stroke-width="0.4851" stroke-miterlimit="10" x1="498.466" y1="94.916" x2="498.466" y2="96.412"/>
				
					<line fill="none" stroke="#FFFFFF" stroke-width="0.4851" stroke-miterlimit="10" x1="501.473" y1="94.916" x2="501.473" y2="96.412"/>
				
					<line fill="none" stroke="#FFFFFF" stroke-width="0.4851" stroke-miterlimit="10" x1="504.479" y1="94.916" x2="504.479" y2="96.412"/>
			</g>
			
				<rect x="490.341" y="105.872" fill="#FDFDFE" stroke="#092134" stroke-width="0.6791" stroke-miterlimit="10" width="3.271" height="3.274"/>
			
				<rect x="496.524" y="111.208" fill="#FDFDFE" stroke="#092134" stroke-width="0.6791" stroke-miterlimit="10" width="3.275" height="3.274"/>
			
				<rect x="498.16" y="106.105" fill="#FDFDFE" stroke="#092134" stroke-width="0.6791" stroke-miterlimit="10" width="3.275" height="3.274"/>
			
				<rect x="490.341" y="99.071" fill="#FDFDFE" stroke="#092134" stroke-width="0.6791" stroke-miterlimit="10" width="3.271" height="3.275"/>
		</g>
		<g>
			<circle fill="#62B4CE" stroke="#F3FAFD" stroke-width="3.96" stroke-miterlimit="10" cx="679.58" cy="150.239" r="55.44"/>
			<g>
				<path fill="none" stroke="#FDFDFE" stroke-width="1.584" stroke-miterlimit="10" d="M725.516,156.368
					c0,10.498-8.512,19.009-19.007,19.009h-53.856c-10.497,0-19.009-8.512-19.009-19.009v-12.261
					c0-10.498,8.512-19.007,19.009-19.007h53.856c10.495,0,19.007,8.51,19.007,19.007V156.368z"/>
				<g>
					<g>
						
							<line fill="none" stroke="#FDFDFE" stroke-width="1.203" stroke-miterlimit="10" x1="670.041" y1="166.827" x2="715.344" y2="166.827"/>
						
							<line fill="none" stroke="#FDFDFE" stroke-width="0.9504" stroke-miterlimit="10" x1="693.842" y1="144.44" x2="693.842" y2="166.754"/>
						<circle fill="#FDFDFE" cx="676.701" cy="140.724" r="1.749"/>
						<circle fill="#FDFDFE" cx="683.67" cy="144.44" r="1.749"/>
						<circle fill="#FDFDFE" cx="700.282" cy="147.938" r="1.748"/>
						<circle fill="#FDFDFE" cx="691.426" cy="164.016" r="1.749"/>
						<circle fill="#FDFDFE" cx="689.677" cy="160.493" r="1.75"/>
						<circle fill="#FDFDFE" cx="687.928" cy="162.372" r="1.749"/>
						<circle fill="#FDFDFE" cx="687.928" cy="158.743" r="1.749"/>
						<circle fill="#FDFDFE" cx="689.677" cy="155.779" r="1.75"/>
						<circle fill="#FDFDFE" cx="686.178" cy="150.708" r="1.749"/>
						<circle fill="#FDFDFE" cx="705.246" cy="140.724" r="1.748"/>
						<circle fill="#FDFDFE" cx="707.979" cy="152.279" r="1.749"/>
						<circle fill="#FDFDFE" cx="678.449" cy="148.961" r="1.749"/>
						<circle fill="#FDFDFE" cx="680.199" cy="154.029" r="1.749"/>
						<circle fill="#FDFDFE" cx="685.42" cy="160.493" r="1.749"/>
						<circle fill="#FDFDFE" cx="696.786" cy="164.016" r="1.749"/>
						<circle fill="#FDFDFE" cx="698.533" cy="160.493" r="1.749"/>
						<circle fill="#FDFDFE" cx="700.282" cy="162.372" r="1.748"/>
						<circle fill="#FDFDFE" cx="700.282" cy="158.743" r="1.748"/>
						<circle fill="#FDFDFE" cx="703.78" cy="159.866" r="1.75"/>
						<circle fill="#FDFDFE" cx="698.533" cy="155.779" r="1.749"/>
						<circle fill="#FDFDFE" cx="702.031" cy="155.779" r="1.749"/>
						<g>
							<g>
								
									<line fill="none" stroke="#FDFDFE" stroke-width="0.4752" stroke-miterlimit="10" x1="689.327" y1="144.81" x2="689.327" y2="145.522"/>
								
									<line fill="none" stroke="#FDFDFE" stroke-width="0.4752" stroke-miterlimit="10" stroke-dasharray="1.3674,1.3674" x1="689.327" y1="146.89" x2="689.327" y2="165.35"/>
								
									<line fill="none" stroke="#FDFDFE" stroke-width="0.4752" stroke-miterlimit="10" x1="689.327" y1="166.033" x2="689.327" y2="166.746"/>
							</g>
						</g>
						<g>
							<g>
								
									<line fill="none" stroke="#FDFDFE" stroke-width="0.4752" stroke-miterlimit="10" x1="698.534" y1="144.81" x2="698.534" y2="145.522"/>
								
									<line fill="none" stroke="#FDFDFE" stroke-width="0.4752" stroke-miterlimit="10" stroke-dasharray="1.3674,1.3674" x1="698.534" y1="146.89" x2="698.534" y2="165.35"/>
								
									<line fill="none" stroke="#FDFDFE" stroke-width="0.4752" stroke-miterlimit="10" x1="698.534" y1="166.033" x2="698.534" y2="166.746"/>
							</g>
						</g>
						
							<line fill="none" stroke="#FDFDFE" stroke-width="1.1009" stroke-miterlimit="10" x1="670.041" y1="138.976" x2="670.041" y2="166.827"/>
					</g>
					
						<rect x="643.815" y="133.648" fill="none" stroke="#FDFDFE" stroke-width="1.3823" stroke-miterlimit="10" width="19.357" height="33.179"/>
					<rect x="645.96" y="138.268" fill="#D0D2D1" width="15.066" height="2.456"/>
					<rect x="645.96" y="143.229" fill="#D0D2D1" width="15.066" height="2.456"/>
					<rect x="645.96" y="148.193" fill="#D0D2D1" width="15.066" height="2.456"/>
					<rect x="645.96" y="153.157" fill="#D0D2D1" width="15.066" height="2.456"/>
					<rect x="645.96" y="158.118" fill="#D0D2D1" width="15.066" height="2.456"/>
				</g>
			</g>
		</g>
		<g>
			<rect x="595.142" y="478.332" fill="#F3FAFD" width="14.85" height="14.85"/>
			
				<rect x="616.08" y="478.332" fill="none" stroke="#F3FAFD" stroke-width="1.188" stroke-miterlimit="10" width="14.851" height="14.85"/>
			<rect x="635.832" y="478.332" fill="#F3FAFD" width="14.85" height="14.85"/>
			<rect x="635.832" y="497.043" fill="#F3FAFD" width="14.85" height="14.85"/>
			
				<rect x="615.486" y="497.043" fill="none" stroke="#F3FAFD" stroke-width="1.188" stroke-miterlimit="10" width="14.851" height="14.85"/>
			<rect x="595.142" y="497.043" fill="#F3FAFD" width="14.85" height="14.85"/>
			<rect x="595.142" y="516.367" fill="#F3FAFD" width="14.85" height="14.85"/>
			<rect x="615.486" y="516.367" fill="#F3FAFD" width="14.851" height="14.85"/>
			
				<rect x="635.832" y="516.367" fill="none" stroke="#F3FAFD" stroke-width="1.188" stroke-miterlimit="10" width="14.85" height="14.85"/>
			<polyline fill="none" stroke="#F3FAFD" stroke-width="1.188" stroke-miterlimit="10" points="591.975,483.93 586.529,483.93 
				586.529,502.344 586.529,525.705 592.863,525.705 			"/>
			
				<line fill="none" stroke="#F3FAFD" stroke-width="1.393" stroke-miterlimit="10" x1="586.529" y1="502.938" x2="591.975" y2="502.938"/>
			<g>
				<polyline fill="none" stroke="#F3FAFD" stroke-width="1.188" stroke-miterlimit="10" points="589.696,502.938 589.696,497.043 
					593.161,497.043 				"/>
				<polyline fill="none" stroke="#F3FAFD" stroke-width="1.188" stroke-miterlimit="10" points="589.696,502.984 589.696,508.877 
					593.161,508.877 				"/>
			</g>
			<g>
				<g>
					<polyline fill="none" stroke="#F3FAFD" stroke-width="1.393" stroke-miterlimit="10" points="589.696,483.93 589.696,479.969 
						593.161,479.969 					"/>
				</g>
				<g>
					<polyline fill="none" stroke="#F3FAFD" stroke-width="1.393" stroke-miterlimit="10" points="589.696,483.531 589.696,487.492 
						593.161,487.492 					"/>
				</g>
			</g>
			<g>
				<g>
					<polyline fill="none" stroke="#F3FAFD" stroke-width="1.393" stroke-miterlimit="10" points="589.696,525.906 589.696,521.943 
						593.161,521.943 					"/>
				</g>
				<g>
					<polyline fill="none" stroke="#F3FAFD" stroke-width="1.393" stroke-miterlimit="10" points="589.696,525.508 589.696,529.469 
						593.161,529.469 					"/>
				</g>
			</g>
		</g>
		<g>
			<circle fill="#F3FAFD" cx="650.225" cy="461.039" r="11.869"/>
			
				<line fill="none" stroke="#62B4CE" stroke-width="0.6336" stroke-miterlimit="10" x1="643.543" y1="470.85" x2="655.938" y2="450.633"/>
			
				<line fill="none" stroke="#62B4CE" stroke-width="0.6336" stroke-miterlimit="10" x1="659.364" y1="468.613" x2="649.74" y2="460.365"/>
		</g>
		<g>
			<circle fill="#62B4CE" stroke="#F3FAFD" stroke-width="3.96" stroke-miterlimit="10" cx="392.18" cy="212.247" r="27.72"/>
			<g>
				
					<line fill="none" stroke="#FFFFFF" stroke-width="1.1405" stroke-miterlimit="10" x1="381.734" y1="201.428" x2="381.734" y2="222.467"/>
				
					<line fill="none" stroke="#FFFFFF" stroke-width="0.9506" stroke-miterlimit="10" x1="381.479" y1="223.067" x2="402.88" y2="223.067"/>
				<rect x="384.157" y="214.615" fill="#FFFFFF" width="4.136" height="7.853"/>
				<rect x="389.736" y="208.626" fill="#FFFFFF" width="4.134" height="13.841"/>
				<rect x="395.316" y="204.713" fill="#FFFFFF" width="4.134" height="17.754"/>
			</g>
		</g>
		<g>
			
				<line fill="none" stroke="#FFFFFF" stroke-width="1.9008" stroke-miterlimit="10" x1="339.234" y1="392.502" x2="339.234" y2="427.57"/>
			
				<line fill="none" stroke="#FFFFFF" stroke-width="1.5751" stroke-miterlimit="10" x1="338.809" y1="428.566" x2="374.058" y2="428.566"/>
			<rect x="344.447" y="397.979" fill="#FFFFFF" width="6.889" height="29.592"/>
			<rect x="353.746" y="405.393" fill="#FFFFFF" width="6.888" height="22.178"/>
			<rect x="363.044" y="414.926" fill="#FFFFFF" width="6.887" height="12.645"/>
			<g>
				<g>
					<polyline fill="none" stroke="#FFFFFF" stroke-width="1.5751" stroke-miterlimit="10" points="342.647,390.793 
						360.633,404.111 368.033,404.111 373.933,409.745 					"/>
					<g>
						<path fill="#FFFFFF" d="M375.996,411.715c-1.314-0.566-3.105-1.102-4.473-1.164l2.14-1.063l0.964-2.187
							C374.751,408.664,375.369,410.429,375.996,411.715z"/>
					</g>
				</g>
			</g>
		</g>
		<g>
			<circle fill="#62B4CE" stroke="#F3FAFD" stroke-width="3.96" stroke-miterlimit="10" cx="766.492" cy="355.476" r="46.201"/>
			<g>
				<polyline fill="none" stroke="#FFFFFF" stroke-width="3.1501" stroke-miterlimit="10" points="741.816,334.568 741.816,378.525 
					796.2,378.525 				"/>
				<rect x="750.792" y="347.111" fill="#FFFFFF" width="8.449" height="9.639"/>
				<g>
					
						<line fill="none" stroke="#FFFFFF" stroke-width="1.5456" stroke-miterlimit="10" x1="754.951" y1="342.623" x2="754.951" y2="361.537"/>
					<g>
						
							<line fill="none" stroke="#FFFFFF" stroke-width="1.7514" stroke-miterlimit="10" x1="752.18" y1="342.623" x2="757.722" y2="342.623"/>
						
							<line fill="none" stroke="#FFFFFF" stroke-width="1.7514" stroke-miterlimit="10" x1="752.18" y1="361.537" x2="757.722" y2="361.537"/>
					</g>
				</g>
				<g>
					<rect x="764.785" y="340.043" fill="#FFFFFF" width="8.448" height="21.916"/>
					
						<line fill="none" stroke="#FFFFFF" stroke-width="2.0293" stroke-miterlimit="10" x1="768.646" y1="334.568" x2="768.646" y2="367.175"/>
					
						<line fill="none" stroke="#FFFFFF" stroke-width="1.584" stroke-miterlimit="10" x1="764.424" y1="334.568" x2="772.869" y2="334.568"/>
					
						<line fill="none" stroke="#FFFFFF" stroke-width="1.584" stroke-miterlimit="10" x1="764.424" y1="367.175" x2="772.869" y2="367.175"/>
				</g>
				<g>
					<rect x="778.249" y="351.93" fill="#FFFFFF" width="8.449" height="15.245"/>
					
						<line fill="none" stroke="#FFFFFF" stroke-width="1.7514" stroke-miterlimit="10" x1="782.472" y1="347.111" x2="782.472" y2="371.398"/>
					
						<line fill="none" stroke="#FFFFFF" stroke-width="1.6896" stroke-miterlimit="10" x1="778.249" y1="347.111" x2="786.698" y2="347.111"/>
					
						<line fill="none" stroke="#FFFFFF" stroke-width="1.6896" stroke-miterlimit="10" x1="778.249" y1="371.398" x2="786.698" y2="371.398"/>
				</g>
			</g>
			
				<line fill="none" stroke="#FFFFFF" stroke-width="0.99" stroke-miterlimit="10" x1="745.867" y1="378.525" x2="745.867" y2="384.023"/>
			
				<line fill="none" stroke="#FFFFFF" stroke-width="0.99" stroke-miterlimit="10" x1="753.189" y1="378.525" x2="753.189" y2="384.023"/>
			
				<line fill="none" stroke="#FFFFFF" stroke-width="0.99" stroke-miterlimit="10" x1="760.51" y1="378.525" x2="760.51" y2="384.023"/>
			
				<line fill="none" stroke="#FFFFFF" stroke-width="0.99" stroke-miterlimit="10" x1="767.831" y1="378.525" x2="767.831" y2="384.023"/>
			
				<line fill="none" stroke="#FFFFFF" stroke-width="0.99" stroke-miterlimit="10" x1="775.151" y1="378.525" x2="775.151" y2="384.023"/>
			
				<line fill="none" stroke="#FFFFFF" stroke-width="0.99" stroke-miterlimit="10" x1="782.472" y1="378.525" x2="782.472" y2="384.023"/>
		</g>
	</g>
	<text transform="matrix(1 0 0 1 12.1108 119.98)" fill="#FFFFFF" font-family="'MyriadPro-Bold'" font-size="60">ProVision </text>
</g>
</svg>
